<?xml version="1.0" encoding="UTF-8" standalone="no"?>
<svg width="54px" height="59px" viewBox="0 0 54 59" version="1.1" xmlns="http://www.w3.org/2000/svg" xmlns:xlink="http://www.w3.org/1999/xlink">
    <!-- Generator: Sketch 41.2 (35397) - http://www.bohemiancoding.com/sketch -->
    <title>Gesture 13</title>
    <desc>Created with Sketch.</desc>
    <defs></defs>
    <g id="Page-1" stroke="none" stroke-width="1" fill="none" fill-rule="evenodd">
        <g id="Gesture-13" fill="#000000">
            <path d="M48.9,58.4 L45.9,58.4 L45.9,51.7 L49.1,40.2 L49.1,29.5 L35.4,27 C30.4,25.6 27.6,22.6 27.6,18.7 L27.6,11.3 C27.6,8.9 25.7,6.9 23.3,6.9 C20.8,6.9 18.9,8.9 18.9,11.3 L18.9,36.9 L7.6,36.9 C5.2,36.9 3.3,38.9 3.3,41.3 L3.3,41.4 C3.3,43.8 5.2,45.8 7.6,45.8 L12.6,45.8 C17.1,45.8 20.8,49.5 20.8,54.1 L20.8,58.3 L17.8,58.3 L17.8,54.1 C17.8,51.2 15.5,48.8 12.6,48.8 L7.6,48.8 C3.6,48.8 0.3,45.5 0.3,41.4 L0.3,41.3 C0.3,37.2 3.6,33.9 7.6,33.9 L15.9,33.9 L15.9,11.3 C15.9,7.2 19.2,3.9 23.2,3.9 C27.3,3.9 30.6,7.2 30.6,11.3 L30.6,18.7 C30.6,21.8 33.6,23.3 36.2,24.1 L52.2,27 L52.2,40.6 L49,52.1 L49,58.4 L48.9,58.4 Z" id="Shape"></path>
            <g id="Group" transform="translate(36.000000, 0.000000)">
                <rect id="Rectangle-path" x="7.7" y="1.9" width="3" height="18.9"></rect>
                <polygon id="Shape" points="16.2 7.9 9.1 3.4 2.1 7.9 0.5 5.4 8.2 0.4 10 0.4 17.8 5.4"></polygon>
            </g>
        </g>
    </g>
</svg>